<?xml version="1.0" encoding="utf-8"?>
<!-- Generator: Adobe Illustrator 23.0.2, SVG Export Plug-In . SVG Version: 6.00 Build 0)  -->
<svg version="1.1" id="Capa_1" xmlns="http://www.w3.org/2000/svg" xmlns:xlink="http://www.w3.org/1999/xlink" x="0px" y="0px"
	 viewBox="0 0 1080 193" style="enable-background:new 0 0 1080 193;" xml:space="preserve">
<style type="text/css">
	.st0{fill:#213D3C;}
	.st1{fill:#F6E173;}
	.st2{fill:#F69312;}
</style>
<g>
	<path class="st0" d="M1080,121.01c-179.85-26.98-359.37-16.22-540,0c-180.63,16.22-360.15,26.98-540,0C0,80.34,0,39.67,0-1
		c360,0,720,0,1080,0C1080,39.67,1080,80.34,1080,121.01z"/>
	<path class="st1" d="M1080,155.39c-97.15-8.37-194.99-11.14-292.95-10.73C704.33,145,622.3,150.44,540,155.39
		c-84.13,5.06-167.91,10.5-252.47,10.75C191.38,166.44,95.36,163.6,0,155.39c0-14.61,0-29.21,0-43.82
		c179.24,29.7,359.62,16.99,540,0c180.38-16.99,360.75-29.7,540,0C1080,126.18,1080,140.78,1080,155.39z"/>
	<path class="st2" d="M1080,194.67c-360,0-720,0-1080,0c0-14.61,0-29.21,0-43.82c95.25,9.07,191.31,12.15,287.53,11.74
		c84.62-0.36,168.35-6.24,252.47-11.74c82.28-5.37,164.28-11.25,247.05-11.71c98.03-0.54,195.91,2.47,292.95,11.71
		C1080,165.46,1080,180.07,1080,194.67z"/>
</g>
</svg>
